<svg class="icon" width="200" height="200" viewBox="0 0 1024 1024" xmlns="http://www.w3.org/2000/svg"><path d="M512 240C178.704 240 12.304 483.872 5.376 494.256a31.997 31.997 0 000 35.504C12.304 540.128 178.704 784 512 784s499.696-243.872 506.624-254.256a31.997 31.997 0 000-35.504C1011.696 483.872 845.296 240 512 240zm0 480c-248.112 0-396.256-154.848-439.808-208.064C115.6 458.608 262.976 304 512 304c248.112 0 396.256 154.848 439.808 208.064C908.4 565.392 761.024 720 512 720zm0-352c-79.408 0-144 64.608-144 144s64.592 144 144 144 144-64.608 144-144-64.592-144-144-144zm0 224c-44.112 0-80-35.888-80-80s35.888-80 80-80 80 35.888 80 80-35.888 80-80 80z"/></svg>