<svg class="icon" viewBox="0 0 1024 1024" xmlns="http://www.w3.org/2000/svg" width="200" height="200"><path d="M974.297 870.001l-141.568 138.757a53.866 53.866 0 01-75.098 0l-70.8-69.38a51.424 51.424 0 01-15.53-36.8 52.56 52.56 0 0153.066-52.033A53.456 53.456 0 01761.93 865.8l33.237 32.565L899.23 796.396a53.445 53.445 0 0137.536-15.237 52.581 52.581 0 0153.099 52.037 51.498 51.498 0 01-15.568 36.8zM812.9 807.431l-18.304 17.92a105.936 105.936 0 00-176.394 77.226 102.74 102.74 0 0031.099 73.6l31.098 30.501H87.234a52.576 52.576 0 01-53.099-52.048V52.666A52.581 52.581 0 0187.234.62h283.172v294.894a105.258 105.258 0 00106.197 104.283H812.9zM476.603 347.668a52.656 52.656 0 01-53.104-52.155V0L812.9 347.668zm0 0"/></svg>